<svg width="13" height="23" viewBox="0 0 13 23" fill="none" xmlns="http://www.w3.org/2000/svg">
<rect width="13" height="23" fill="black"/>
<path d="M1 2H2V3H1V2Z" fill="#800000"/>
<path d="M2 3H3V4H2V3Z" fill="#800000"/>
<path d="M3 4H4V5H3V4Z" fill="#800000"/>
<path d="M1 4H2V5H1V4Z" fill="#800000"/>
<path d="M2 5H3V6H2V5Z" fill="#800000"/>
<path d="M3 6H4V7H3V6Z" fill="#800000"/>
<path d="M1 6H2V7H1V6Z" fill="#800000"/>
<path d="M2 7H3V8H2V7Z" fill="#800000"/>
<path d="M3 8H4V9H3V8Z" fill="#800000"/>
<path d="M1 8H2V9H1V8Z" fill="#800000"/>
<path d="M2 9H3V10H2V9Z" fill="#800000"/>
<path d="M1 10H2V11H1V10Z" fill="#800000"/>
<path d="M1 12H2V13H1V12Z" fill="#800000"/>
<path d="M2 13H3V14H2V13Z" fill="#800000"/>
<path d="M3 14H4V15H3V14Z" fill="#800000"/>
<path d="M1 14H2V15H1V14Z" fill="#800000"/>
<path d="M2 15H3V16H2V15Z" fill="#800000"/>
<path d="M3 16H4V17H3V16Z" fill="#800000"/>
<path d="M1 16H2V17H1V16Z" fill="#800000"/>
<path d="M2 17H3V18H2V17Z" fill="#800000"/>
<path d="M3 18H4V19H3V18Z" fill="#800000"/>
<path d="M1 18H2V19H1V18Z" fill="#800000"/>
<path d="M2 19H3V20H2V19Z" fill="#800000"/>
<path d="M1 20H2V21H1V20Z" fill="#800000"/>
<path d="M12 2H11V3H12V2Z" fill="#800000"/>
<path d="M11 3H10V4H11V3Z" fill="#800000"/>
<path d="M10 4H9V5H10V4Z" fill="#800000"/>
<path d="M12 4H11V5H12V4Z" fill="#800000"/>
<path d="M11 5H10V6H11V5Z" fill="#800000"/>
<path d="M10 6H9V7H10V6Z" fill="#800000"/>
<path d="M12 6H11V7H12V6Z" fill="#800000"/>
<path d="M11 7H10V8H11V7Z" fill="#800000"/>
<path d="M10 8H9V9H10V8Z" fill="#800000"/>
<path d="M12 8H11V9H12V8Z" fill="#800000"/>
<path d="M11 9H10V10H11V9Z" fill="#800000"/>
<path d="M12 10H11V11H12V10Z" fill="#800000"/>
<path d="M12 12H11V13H12V12Z" fill="#800000"/>
<path d="M11 13H10V14H11V13Z" fill="#800000"/>
<path d="M10 14H9V15H10V14Z" fill="#800000"/>
<path d="M12 14H11V15H12V14Z" fill="#800000"/>
<path d="M11 15H10V16H11V15Z" fill="#800000"/>
<path d="M10 16H9V17H10V16Z" fill="#800000"/>
<path d="M12 16H11V17H12V16Z" fill="#800000"/>
<path d="M11 17H10V18H11V17Z" fill="#800000"/>
<path d="M10 18H9V19H10V18Z" fill="#800000"/>
<path d="M12 18H11V19H12V18Z" fill="#800000"/>
<path d="M11 19H10V20H11V19Z" fill="#800000"/>
<path d="M12 20H11V21H12V20Z" fill="#800000"/>
<path d="M3 22V21H4V22H3Z" fill="#800000"/>
<path d="M4 21V20H5V21H4Z" fill="#800000"/>
<path d="M5 20V19H6V20H5Z" fill="#800000"/>
<path d="M5 22V21H6V22H5Z" fill="#800000"/>
<path d="M6 21V20H7V21H6Z" fill="#800000"/>
<path d="M7 20V19H8V20H7Z" fill="#800000"/>
<path d="M7 22V21H8V22H7Z" fill="#800000"/>
<path d="M8 21V20H9V21H8Z" fill="#800000"/>
<path d="M9 22V21H10V22H9Z" fill="#800000"/>
<path d="M10 1V2H9V1L10 1Z" fill="#800000"/>
<path d="M9 2V3H8V2H9Z" fill="#800000"/>
<path d="M8 3V4H7V3H8Z" fill="#800000"/>
<path d="M8 1V2H7V1L8 1Z" fill="#800000"/>
<path d="M7 2V3H6V2H7Z" fill="#800000"/>
<path d="M6 3V4H5V3H6Z" fill="#800000"/>
<path d="M6 1V2H5V1L6 1Z" fill="#800000"/>
<path d="M5 2V3H4V2H5Z" fill="#800000"/>
<path d="M4 1V2H3V1L4 1Z" fill="#800000"/>
<path d="M3 12V11H4V12H3Z" fill="#800000"/>
<path d="M4 11V10H5V11H4Z" fill="#800000"/>
<path d="M5 12V11H6V12H5Z" fill="#800000"/>
<path d="M6 11V10H7V11H6Z" fill="#800000"/>
<path d="M7 12V11H8V12H7Z" fill="#800000"/>
<path d="M8 11V10H9V11H8Z" fill="#800000"/>
<path d="M4 13V12H5V13H4Z" fill="#800000"/>
<path d="M6 13V12H7V13H6Z" fill="#800000"/>
<path d="M8 13V12H9V13H8Z" fill="#800000"/>
<path d="M9 12V11H10V12H9Z" fill="#800000"/>
<path d="M9 4H10V9H9V4Z" fill="#FF0000"/>
<path d="M10 3H11V10H10V3Z" fill="#FF0000"/>
<path d="M11 2H12V11H11V2Z" fill="#FF0000"/>
<path d="M9 14H10V19H9V14Z" fill="#FF0000"/>
<path d="M10 13H11V20H10V13Z" fill="#FF0000"/>
<path d="M11 12H12V21H11V12Z" fill="#FF0000"/>
<path d="M2 1.5H3.5M11 1.5H9.5M3.5 1.5V2.5H4.5M3.5 1.5H9.5M9.5 1.5V2.5H8.5M4.5 2.5V3.5H8.5V2.5M4.5 2.5H8.5" stroke="#FF0000"/>
<path d="M11 21.5H9.5M2 21.5H3.5M9.5 21.5V20.5H8.5M9.5 21.5H3.5M3.5 21.5V20.5H4.5M8.5 20.5V19.5H4.5V20.5M8.5 20.5H4.5" stroke="#FF0000"/>
<path d="M11 11.5H9.5M2 11.5H3.5M3.5 11.5V10.5H9.5V11.5M3.5 11.5H9.5M3.5 11.5V12.5H9.5V11.5" stroke="#FF0000"/>
</svg>
